<svg width="90" height="48" viewBox="0 0 90 48" fill="none" xmlns="http://www.w3.org/2000/svg">
<path d="M54.4964 24.0264C55.7664 24.0264 56.796 22.9966 56.796 21.7263C56.796 20.456 55.7664 19.4261 54.4964 19.4261C53.2263 19.4261 52.1968 20.456 52.1968 21.7263C52.1968 22.9966 53.2263 24.0264 54.4964 24.0264Z" fill="white"/>
<path fill-rule="evenodd" clip-rule="evenodd" d="M34.8384 15.3917C29.1947 15.3917 24.5893 18.9597 24.5893 24.1938C24.5893 29.4279 29.1301 32.9731 34.8384 32.9731C40.5467 32.9731 45.0875 29.3861 45.0875 24.1938C45.0875 19.0016 40.482 15.3917 34.8384 15.3917ZM34.8612 19.0054C38.3638 19.0054 40.8928 21.3181 40.8928 24.1938C40.8928 27.157 38.2345 29.3633 34.8612 29.3633C31.4879 29.3633 28.765 27.1989 28.765 24.1938C28.765 21.1888 31.3586 19.0054 34.8612 19.0054Z" fill="#FF2F42"/>
<path fill-rule="evenodd" clip-rule="evenodd" d="M5 15.7379V32.6079H13.0852C18.9684 32.6079 22.4482 29.0818 22.4482 24.0645C22.4482 19.4999 19.5959 15.7379 12.8494 15.7379H5ZM12.6098 29.059C11.4879 29.059 10.252 29.0589 8.9133 29.6638V29.6676L8.46074 29.2339C9.32402 25.9018 9.3012 22.4631 8.43792 18.9179L8.9133 18.7011C10.0352 19.2831 10.9251 19.2831 11.853 19.2831C14.4048 19.2831 18.2763 19.2831 18.2763 24.2357C18.2763 28.3666 15.4202 29.059 12.6098 29.059Z" fill="#FF2F42"/>
<path fill-rule="evenodd" clip-rule="evenodd" d="M64.5018 24.1938C64.5018 18.9597 69.1072 15.3917 74.7509 15.3917C80.3946 15.3917 85 19.0016 85 24.1938C85 29.3861 80.4592 32.9731 74.7509 32.9731C69.0426 32.9731 64.5018 29.4279 64.5018 24.1938ZM80.8053 24.1938C80.8053 21.3181 78.2763 19.0054 74.7737 19.0054C71.2712 19.0054 68.6775 21.1888 68.6775 24.1938C68.6775 27.1989 71.4005 29.3633 74.7737 29.3633C78.147 29.3633 80.8053 27.157 80.8053 24.1938Z" fill="#FF2F42"/>
<path d="M42.2969 4.30151H66.6966V5.33491C66.6966 5.52005 66.6188 5.69423 66.4855 5.81639L64.3006 7.77954C64.0155 8.09801 63.623 8.27953 63.2157 8.27953H61.4826C61.4826 8.27953 61.4789 9.71602 61.4789 10.5549C61.4789 11.3937 61.1355 12.2994 61.1355 12.2994L61.3695 12.5335C61.6202 12.1892 62.7281 10.8241 63.4638 10.8241L66.2448 10.8093V14.3576L61.4789 14.4132V21.3618L60.6457 20.532C59.6961 19.588 58.7449 18.6455 57.798 17.6986V11.0501C57.798 10.0601 58.0177 9.2547 58.2197 8.37019L58.2202 8.36838L58.2215 8.36274L58.2229 8.35721C58.2247 8.35037 58.2263 8.34433 58.226 8.33779C58.2257 8.33246 58.2241 8.32682 58.2202 8.32028C58.195 8.28245 58.0914 8.24471 57.9927 8.2258C57.9173 8.21141 57.8449 8.20799 57.8128 8.22399C57.2843 8.48166 56.7229 8.57783 56.1408 8.58774C55.0452 8.60623 53.9469 8.60605 52.8513 8.58774C52.2697 8.5778 51.7087 8.48143 51.1806 8.22399C51.1065 8.18696 50.8177 8.25357 50.7733 8.32028C50.7622 8.3388 50.7696 8.34986 50.7733 8.36838L50.7737 8.37019C50.9757 9.25432 51.1954 10.0687 51.1954 11.0501V17.6986C49.9714 18.9226 48.7411 20.1403 47.5146 21.3618V14.4132L42.7487 14.3576V10.8093L45.5297 10.8241C46.2653 10.8241 47.3732 12.1892 47.6239 12.5335L47.8579 12.2994C47.8579 12.2994 47.5146 11.3937 47.5146 10.5549C47.5146 9.71602 47.5108 8.27953 47.5108 8.27953H45.7778C45.3704 8.27953 44.9779 8.09801 44.6928 7.77954L42.5079 5.81639C42.3747 5.69423 42.2969 5.52005 42.2969 5.33491V4.30151Z" fill="#FF2F42"/>
<path d="M47.5596 26.4443L61.5889 26.4633V36.6271C61.5889 38.5101 61.5889 43.6985 54.9526 43.6985C50.8036 43.6985 47.5596 41.5379 47.5596 37.7531V34.885H51.4957V37.1901C51.4957 38.7915 52.7279 40.0887 54.7587 40.0887C57.417 40.0887 57.6337 38.3351 57.6337 37.1673V32.7929C57.6337 31.6677 57.8345 30.7731 58.189 29.708C58.1928 29.6965 58.189 29.6889 58.1776 29.6851C58.0901 29.6465 57.7478 29.4227 57.6642 29.4645C56.7072 29.9596 55.6779 30.0807 54.618 30.0807H47.5596V26.4443Z" fill="#FF2F42"/>
</svg>
