<svg width="269" height="66" viewBox="0 0 269 66" fill="none" xmlns="http://www.w3.org/2000/svg">
<path d="M143.373 40.4442L142.639 44.7903H149.143C149.394 44.7903 149.586 45.0172 149.543 45.2657L149.011 48.2423C148.975 48.4368 148.808 48.5773 148.611 48.5773H141.931L141.139 53.1881H148.557C148.808 53.1881 149 53.415 148.957 53.6635L148.395 56.8751C148.36 57.0696 148.192 57.21 147.995 57.21H135.897C135.645 57.21 135.454 56.9832 135.497 56.7346L138.995 36.7842C139.03 36.5897 139.197 36.4492 139.395 36.4492H151.493C151.744 36.4492 151.936 36.6761 151.893 36.9246L151.331 40.1092C151.296 40.3037 151.128 40.4442 150.931 40.4442H143.373Z" fill="#FF3000"/>
<path d="M163.223 49.1649C163.222 49.1644 163.223 49.1645 163.223 49.1649L167.27 56.6096C167.416 56.8797 167.222 57.2092 166.914 57.2092H162.197C162.049 57.2092 161.911 57.1282 161.841 56.9958L159.431 52.539L156.001 57.0472C155.925 57.1471 155.807 57.2065 155.68 57.2065H151.182C150.842 57.2065 150.653 56.8122 150.869 56.5475L156.871 49.152C157.126 48.8379 157.167 48.4013 156.974 48.0456L153.386 41.4212C153.24 41.1511 153.435 40.8242 153.743 40.8242H158.459C158.608 40.8242 158.745 40.9053 158.816 41.0376L161.198 45.435L164.599 40.9836C164.674 40.8836 164.793 40.8242 164.92 40.8242H169.399C169.744 40.8242 169.931 41.2267 169.709 41.4914L163.223 49.1649C163.224 49.1651 163.223 49.1651 163.223 49.1649Z" fill="#FF3000"/>
<path d="M182.294 41.4862C183.145 42.0642 183.688 42.8314 183.923 43.7903L184.393 41.1594C184.428 40.9649 184.595 40.8244 184.792 40.8244H188.99C189.241 40.8244 189.433 41.0513 189.39 41.2998L186.626 56.8745C186.591 57.069 186.424 57.2094 186.227 57.2094H182.034C181.781 57.2094 181.589 56.9798 181.637 56.7286L182.105 54.2436C181.519 55.2214 180.719 55.9966 179.712 56.5639C178.704 57.1311 177.561 57.4147 176.289 57.4147C174.509 57.4147 173.099 56.8421 172.062 55.6968C171.025 54.5515 170.506 52.9606 170.506 50.9266C170.506 50.1244 170.574 49.3411 170.711 48.5766C171.006 46.9533 171.557 45.5379 172.37 44.3332C173.183 43.1285 174.172 42.2101 175.336 41.5726C176.5 40.9379 177.737 40.6191 179.05 40.6191C180.362 40.6191 181.443 40.9082 182.294 41.4862ZM177.332 46.0808C176.538 46.7858 176.035 47.7636 175.819 49.0169C175.76 49.3681 175.73 49.6922 175.73 49.9866C175.73 50.9455 176 51.691 176.538 52.2178C177.075 52.7472 177.796 53.0119 178.696 53.0119C179.752 53.0119 180.681 52.6499 181.486 51.926C182.288 51.2021 182.796 50.2324 183.012 49.0196C183.072 48.6874 183.101 48.3741 183.101 48.0796C183.101 47.1207 182.831 46.3725 182.294 45.8323C181.756 45.2948 181.035 45.0247 180.136 45.0247C179.058 45.0247 178.123 45.3758 177.332 46.0808Z" fill="#FF3000"/>
<path d="M218.749 42.0275C219.688 42.9485 220.158 44.2511 220.158 45.9333C220.158 46.5978 220.109 47.1866 220.012 47.6945L218.397 56.8729C218.362 57.0674 218.194 57.2078 217.997 57.2078H213.8C213.548 57.2078 213.357 56.9809 213.4 56.7324L214.902 48.2806C214.94 48.105 214.961 47.8403 214.961 47.4892C214.961 46.6869 214.732 46.0711 214.272 45.6389C213.813 45.2094 213.17 44.9933 212.349 44.9933C211.371 44.9933 210.542 45.2932 209.867 45.8901C209.192 46.4871 208.757 47.3244 208.559 48.3995L208.536 48.4704C208.532 48.4824 208.53 48.4951 208.53 48.5078C208.53 48.5148 208.529 48.5218 208.528 48.5287L207.033 56.8756C206.998 57.0674 206.831 57.2078 206.634 57.2078H202.463C202.212 57.2078 202.02 56.9809 202.063 56.7324L203.538 48.2806C203.598 47.9862 203.627 47.7134 203.627 47.4595C203.627 46.6761 203.398 46.0711 202.938 45.6389C202.479 45.2094 201.836 44.9933 201.015 44.9933C200.037 44.9933 199.2 45.3013 198.506 45.9171C197.812 46.533 197.366 47.4 197.169 48.5156L195.699 56.8729C195.664 57.0674 195.497 57.2078 195.3 57.2078H191.072C190.821 57.2078 190.629 56.9809 190.673 56.7324L193.409 41.1577C193.444 40.9633 193.611 40.8228 193.809 40.8228H198.036C198.287 40.8228 198.479 41.0497 198.436 41.2982L198.022 43.6104C198.63 42.6893 199.422 41.9654 200.399 41.4387C201.377 40.9092 202.455 40.6445 203.63 40.6445C204.883 40.6445 205.939 40.9335 206.801 41.5116C207.663 42.0896 208.249 42.9162 208.562 43.9939C209.286 42.9756 210.196 42.1626 211.293 41.5575C212.39 40.9498 213.543 40.6472 214.759 40.6472C216.481 40.6472 217.81 41.1061 218.75 42.0266C218.75 42.0269 218.75 42.0275 218.749 42.0275Z" fill="#FF3000"/>
<path d="M239.609 42.2944L239.61 42.2941C240.657 43.4096 241.181 44.957 241.181 46.9336C241.181 47.5792 241.122 48.2734 241.005 49.0189C240.692 50.7206 240.119 52.2089 239.287 53.4811C238.456 54.7534 237.443 55.7285 236.249 56.4038C235.055 57.079 233.791 57.4167 232.462 57.4167C231.133 57.4167 230.158 57.1331 229.364 56.5658C228.572 55.9986 228.056 55.2261 227.821 54.2456L225.971 64.6881C225.936 64.8826 225.768 65.023 225.571 65.023H221.344C221.093 65.023 220.901 64.7961 220.944 64.5476L225.088 41.1613C225.123 40.9668 225.29 40.8264 225.487 40.8264H229.685C229.936 40.8264 230.128 41.0533 230.085 41.3018L229.642 43.7922C230.228 42.8144 231.022 42.0392 232.019 41.4719C233.018 40.9047 234.153 40.6211 235.425 40.6211C237.167 40.6211 238.56 41.1799 239.608 42.2948L239.609 42.2944ZM234.369 51.9537L234.37 51.9514C235.152 51.2465 235.66 50.269 235.895 49.0162C235.954 48.665 235.984 48.3409 235.984 48.0465C235.984 47.0876 235.714 46.3421 235.176 45.8154C234.639 45.2859 233.918 45.0212 233.018 45.0212C231.962 45.0212 231.03 45.3778 230.228 46.0936C229.426 46.8094 228.915 47.7818 228.702 49.0162C228.642 49.3295 228.613 49.6428 228.613 49.9562C228.613 50.9151 228.883 51.6633 229.42 52.2035C229.958 52.741 230.679 53.0111 231.578 53.0111C232.656 53.0111 233.585 52.6603 234.368 51.9559L234.369 51.9537Z" fill="#FF3000"/>
<path d="M251.578 35.9559L247.901 56.8734C247.866 57.0678 247.699 57.2083 247.502 57.2083H243.274C243.023 57.2083 242.831 56.9814 242.875 56.7329L246.551 35.8154C246.586 35.6209 246.753 35.4805 246.951 35.4805H251.178C251.429 35.4805 251.621 35.7074 251.578 35.9559Z" fill="#FF3000"/>
<path d="M267.12 42.3365C267.122 42.3373 267.123 42.3385 267.125 42.3399C268.347 43.4849 268.957 45.0158 268.957 46.9324C268.957 47.3835 268.908 47.9318 268.811 48.5774C268.749 48.9529 268.654 49.3148 268.53 49.6659C268.473 49.8253 268.319 49.928 268.149 49.928H257.066C257.026 50.3196 257.007 50.5843 257.007 50.7194C257.007 52.5021 257.858 53.3908 259.562 53.3908C260.286 53.3908 260.932 53.2044 261.499 52.8317C261.996 52.5075 262.371 52.0997 262.628 51.6081C262.698 51.473 262.847 51.392 262.998 51.392H267.444C267.736 51.392 267.933 51.6918 267.817 51.9592C267.15 53.4826 266.104 54.7414 264.681 55.7354C263.084 56.8509 261.221 57.4101 259.087 57.4101C256.953 57.4101 255.294 56.8239 254.052 55.6489C252.809 54.4739 252.188 52.8506 252.188 50.7761C252.188 50.1494 252.247 49.485 252.364 48.78C252.658 47.1161 253.263 45.6683 254.184 44.4339C255.105 43.1995 256.245 42.2568 257.604 41.6004C258.965 40.944 260.448 40.6172 262.053 40.6172C264.204 40.6172 265.891 41.1891 267.115 42.333C267.115 42.333 267.118 42.3356 267.12 42.3365ZM263.935 46.9351C263.935 46.1518 263.689 45.5656 263.201 45.174C262.712 44.7823 262.093 44.5878 261.35 44.5878C260.429 44.5878 259.619 44.8633 258.914 45.409C258.209 45.9573 257.72 46.7595 257.444 47.8157H263.846C263.906 47.4834 263.935 47.189 263.935 46.9351Z" fill="#FF3000"/>
<path d="M105.052 41.3436L105.053 41.3429C106.157 42.0074 107.024 42.9687 107.65 44.2189C108.277 45.4723 108.59 46.939 108.59 48.6245C108.59 50.31 108.277 51.8064 107.65 53.0597C107.024 54.313 106.157 55.2719 105.052 55.9364C103.944 56.6009 102.688 56.9358 101.278 56.9358C99.8684 56.9358 98.5583 56.5739 97.5184 55.85C96.4812 55.1261 95.7573 54.1672 95.3467 52.9733V56.3254C95.3467 56.5496 95.1657 56.7305 94.9415 56.7305H92.4052C92.181 56.7305 92 56.5496 92 56.3254V35.4052C92 35.181 92.181 35 92.4052 35H94.9415C95.1657 35 95.3467 35.181 95.3467 35.4052V44.3081C95.7573 43.1142 96.4812 42.1553 97.5184 41.4314C98.5556 40.7075 99.8089 40.3455 101.278 40.3455C102.747 40.3455 103.944 40.6775 105.051 41.3442L105.052 41.3436ZM97.7237 43.9421L97.7225 43.9414C96.9776 44.3817 96.3918 45.0081 95.9625 45.8207C95.5304 46.6337 95.317 47.5683 95.317 48.6245C95.317 49.6806 95.5331 50.6395 95.9625 51.4444C96.392 52.2467 96.9809 52.8679 97.7237 53.3082C98.4665 53.7485 99.3092 53.97 100.249 53.97C101.738 53.97 102.931 53.4946 103.831 52.5465C104.73 51.5984 105.181 50.2911 105.181 48.6272C105.181 46.9633 104.73 45.6802 103.831 44.7213C102.931 43.7624 101.735 43.2816 100.249 43.2816C99.3097 43.2816 98.4674 43.5002 97.7248 43.9427L97.7237 43.9421Z" fill="white"/>
<path d="M113.831 40.8014V40.804L118.574 52.4419L122.968 40.8108C123.028 40.6542 123.179 40.5488 123.347 40.5488H126.191C126.48 40.5488 126.674 40.8405 126.566 41.108L117.12 64.1701C117.058 64.3214 116.91 64.4213 116.745 64.4213H113.903C113.612 64.4213 113.417 64.1215 113.531 63.8541L116.609 56.7415C116.718 56.4885 116.718 56.2015 116.609 55.9483L110.211 41.1134C110.095 40.846 110.292 40.5488 110.584 40.5488H113.455C113.619 40.5488 113.768 40.6482 113.83 40.7988L113.831 40.8014Z" fill="white"/>
<path d="M9 1V6.26095L9.86194 7.17022L20.9125 17.7909L21.7772 18.5171H25.7471V27.2321H20.2219V33.0421H25.7471V64.9971H31.2724V33.045H58.8989V65H64.4241V33.045H69.9494V27.235H64.4241V18.52H68.2228L69.0875 17.7938L80.1381 7.17312L81 6.26095V1.0029L77.6323 1.81921C77.5356 1.83954 65.8801 3.99505 45.0856 3.99505C24.2912 3.99505 12.4616 1.83954 12.3649 1.8163L9 1ZM19.6141 8.53266C25.4571 9.14852 33.7975 9.80505 45.0856 9.80505C53.5322 9.82801 61.9745 9.40334 70.3804 8.53266L66.0652 12.71H23.9348L19.6141 8.53266ZM31.2724 18.52H39.5604V27.235H31.2724V18.52ZM50.6109 18.52H58.8989V27.235H50.6109V18.52Z" fill="#FF3000"/>
<path fill-rule="evenodd" clip-rule="evenodd" d="M131 8C123.842 8 118 12.2618 118 18.5136C118 24.7655 123.76 29 131 29C138.24 29 144 24.7155 144 18.5136C144 12.3118 138.158 8 131 8ZM131.029 12.3163C135.471 12.3163 138.679 15.0788 138.679 18.5136C138.679 22.053 135.307 24.6882 131.029 24.6882C126.75 24.6882 123.296 22.103 123.296 18.5136C123.296 14.9243 126.586 12.3163 131.029 12.3163Z" fill="white"/>
<path fill-rule="evenodd" clip-rule="evenodd" d="M92 9V29H102.658C110.413 29 115 24.8196 115 18.8715C115 13.46 111.24 9 102.347 9H92ZM102.031 24.7926C100.552 24.7926 98.9231 24.7926 97.1585 25.5096V25.5141L96.5619 25C97.6999 21.0496 97.6698 16.973 96.5318 12.77L97.1585 12.513C98.6373 13.2029 99.8104 13.2029 101.034 13.2029C104.397 13.2029 109.501 13.2029 109.501 19.0744C109.501 23.9718 105.736 24.7926 102.031 24.7926Z" fill="white"/>
<path fill-rule="evenodd" clip-rule="evenodd" d="M170 18.5136C170 12.2618 176.066 8 183.5 8C190.934 8 197 12.3118 197 18.5136C197 24.7155 191.019 29 183.5 29C175.981 29 170 24.7655 170 18.5136ZM191.475 18.5136C191.475 15.0788 188.144 12.3163 183.53 12.3163C178.917 12.3163 175.5 14.9243 175.5 18.5136C175.5 22.103 179.087 24.6882 183.53 24.6882C187.973 24.6882 191.475 22.053 191.475 18.5136Z" fill="white"/>
<path d="M147 9L166 9.02205V20.8033C166 22.9859 166 29 157.012 29C151.393 29 147 26.4956 147 22.1085V18.8501L152.331 18.7839V21.4559C152.331 23.3122 154 24.8157 156.75 24.8157C160.35 24.8157 160.643 22.7831 160.643 21.4295V16.3589C160.643 15.0547 160.915 14.0177 161.395 12.7831C161.401 12.7698 161.395 12.761 161.38 12.7566C161.262 12.7118 160.798 12.4524 160.685 12.5009C159.389 13.0748 157.995 13.2152 156.559 13.2152H147V9Z" fill="white"/>
</svg>
